<svg xmlns="http://www.w3.org/2000/svg" width="15" height="15" viewBox="0 0 15 15">
  <path fill="#FFF" fill-rule="evenodd" d="M4.5,15 C3.67157288,15 3,14.3284271 3,13.5 C3,12.6715729 3.67157288,12 4.5,12 C5.32842712,12 6,12.6715729 6,13.5 C6,14.3284271 5.32842712,15 4.5,15 Z M12.5,15 C11.6715729,15 11,14.3284271 11,13.5 C11,12.6715729 11.6715729,12 12.5,12 C13.3284271,12 14,12.6715729 14,13.5 C14,14.3284271 13.3284271,15 12.5,15 Z M15,2 L15,6.951 L9.441,9 L15,9 L15,11 L4.016,11 L2.031,2 L0,2 L0,0 L3.648,0 L4.07,2 L15,2 Z"/>
</svg>
